<svg width="324" height="258" viewBox="0 0 324 258" fill="none" xmlns="http://www.w3.org/2000/svg">
<path d="M320.493 106.175L314.398 70.8568C308.573 37.1047 280.623 11.5865 246.481 8.85043L161.243 2.01945C161.081 2.0065 160.919 2.00666 160.757 2.01993L76.1384 8.97078C43.3564 11.6636 16.1544 35.4021 9.04914 67.5179L3.38519 93.1189C-1.30606 114.323 3.42435 136.52 16.3532 153.97L36.4321 181.069C49.4849 198.686 69.5928 209.709 91.4648 211.237L129.569 213.9C130.474 213.963 131.302 214.432 131.821 215.176L161 257L156.047 237.188C153.332 226.327 157.874 214.948 167.321 208.942C167.438 208.868 167.574 208.829 167.712 208.829H177.764C201.173 208.829 224.501 206.07 247.264 200.611L262.087 197.056C286.13 191.289 305.786 174.043 314.632 150.955L316.622 145.76C321.451 133.154 322.788 119.478 320.493 106.175Z" fill="white" stroke="black" stroke-width="3"/>
</svg>
